<svg xmlns="http://www.w3.org/2000/svg" xmlns:xlink="http://www.w3.org/1999/xlink" width="512" height="512" viewBox="0 0 512 512">
  <defs>
    <linearGradient id="bg-grad" x1="85.35533905932738%" y1="85.35533905932738%" x2="14.644660940672615%" y2="14.64466094067263%">
        <stop offset="0%" stop-color="#3B82F6"/>
        <stop offset="100%" stop-color="#9C004E"/>
      </linearGradient>
    <clipPath id="canvas-clip">
      <rect width="512" height="512" rx="96" ry="96"/>
    </clipPath>
  </defs>
  <rect width="512" height="512" rx="96" ry="96" fill="url(#bg-grad)"  clip-path="url(#canvas-clip)"/>
  <g clip-path="url(#canvas-clip)">
    <g transform="rotate(0, 256, 256)">
      <g transform="translate(36 26) scale(19.208333333333332 19.208333333333332) translate(0 0)"><path fill="none" stroke="#111111" stroke-linecap="round" stroke-linejoin="round" stroke-width="2" d="M12 12v.01m2.828-2.838a4 4 0 0 1 0 5.656m2.829-8.485a8 8 0 0 1 0 11.314m-8.489-2.829a4 4 0 0 1 0-5.656m-2.831 8.485a8 8 0 0 1 0-11.314"/></g><g transform="translate(36 29) scale(19.208333333333332 19.208333333333332) translate(0 0)"><path fill="none" stroke="#111111" stroke-linecap="round" stroke-linejoin="round" stroke-width="2" d="M12 12v.01m2.828-2.838a4 4 0 0 1 0 5.656m2.829-8.485a8 8 0 0 1 0 11.314m-8.489-2.829a4 4 0 0 1 0-5.656m-2.831 8.485a8 8 0 0 1 0-11.314"/></g><g transform="translate(34 32) scale(19.208333333333332 19.208333333333332) translate(0 0)"><path fill="none" stroke="#111111" stroke-linecap="round" stroke-linejoin="round" stroke-width="2" d="M12 12v.01m2.828-2.838a4 4 0 0 1 0 5.656m2.829-8.485a8 8 0 0 1 0 11.314m-8.489-2.829a4 4 0 0 1 0-5.656m-2.831 8.485a8 8 0 0 1 0-11.314"/></g><g transform="translate(32 34) scale(19.208333333333332 19.208333333333332) translate(0 0)"><path fill="none" stroke="#111111" stroke-linecap="round" stroke-linejoin="round" stroke-width="2" d="M12 12v.01m2.828-2.838a4 4 0 0 1 0 5.656m2.829-8.485a8 8 0 0 1 0 11.314m-8.489-2.829a4 4 0 0 1 0-5.656m-2.831 8.485a8 8 0 0 1 0-11.314"/></g><g transform="translate(30 35) scale(19.208333333333332 19.208333333333332) translate(0 0)"><path fill="none" stroke="#111111" stroke-linecap="round" stroke-linejoin="round" stroke-width="2" d="M12 12v.01m2.828-2.838a4 4 0 0 1 0 5.656m2.829-8.485a8 8 0 0 1 0 11.314m-8.489-2.829a4 4 0 0 1 0-5.656m-2.831 8.485a8 8 0 0 1 0-11.314"/></g><g transform="translate(27 36) scale(19.208333333333332 19.208333333333332) translate(0 0)"><path fill="none" stroke="#111111" stroke-linecap="round" stroke-linejoin="round" stroke-width="2" d="M12 12v.01m2.828-2.838a4 4 0 0 1 0 5.656m2.829-8.485a8 8 0 0 1 0 11.314m-8.489-2.829a4 4 0 0 1 0-5.656m-2.831 8.485a8 8 0 0 1 0-11.314"/></g><g transform="translate(24 36) scale(19.208333333333332 19.208333333333332) translate(0 0)"><path fill="none" stroke="#111111" stroke-linecap="round" stroke-linejoin="round" stroke-width="2" d="M12 12v.01m2.828-2.838a4 4 0 0 1 0 5.656m2.829-8.485a8 8 0 0 1 0 11.314m-8.489-2.829a4 4 0 0 1 0-5.656m-2.831 8.485a8 8 0 0 1 0-11.314"/></g><g transform="translate(21 35) scale(19.208333333333332 19.208333333333332) translate(0 0)"><path fill="none" stroke="#111111" stroke-linecap="round" stroke-linejoin="round" stroke-width="2" d="M12 12v.01m2.828-2.838a4 4 0 0 1 0 5.656m2.829-8.485a8 8 0 0 1 0 11.314m-8.489-2.829a4 4 0 0 1 0-5.656m-2.831 8.485a8 8 0 0 1 0-11.314"/></g><g transform="translate(19 33) scale(19.208333333333332 19.208333333333332) translate(0 0)"><path fill="none" stroke="#111111" stroke-linecap="round" stroke-linejoin="round" stroke-width="2" d="M12 12v.01m2.828-2.838a4 4 0 0 1 0 5.656m2.829-8.485a8 8 0 0 1 0 11.314m-8.489-2.829a4 4 0 0 1 0-5.656m-2.831 8.485a8 8 0 0 1 0-11.314"/></g><g transform="translate(17 30) scale(19.208333333333332 19.208333333333332) translate(0 0)"><path fill="none" stroke="#111111" stroke-linecap="round" stroke-linejoin="round" stroke-width="2" d="M12 12v.01m2.828-2.838a4 4 0 0 1 0 5.656m2.829-8.485a8 8 0 0 1 0 11.314m-8.489-2.829a4 4 0 0 1 0-5.656m-2.831 8.485a8 8 0 0 1 0-11.314"/></g><g transform="translate(16 27) scale(19.208333333333332 19.208333333333332) translate(0 0)"><path fill="none" stroke="#111111" stroke-linecap="round" stroke-linejoin="round" stroke-width="2" d="M12 12v.01m2.828-2.838a4 4 0 0 1 0 5.656m2.829-8.485a8 8 0 0 1 0 11.314m-8.489-2.829a4 4 0 0 1 0-5.656m-2.831 8.485a8 8 0 0 1 0-11.314"/></g><g transform="translate(16 25) scale(19.208333333333332 19.208333333333332) translate(0 0)"><path fill="none" stroke="#111111" stroke-linecap="round" stroke-linejoin="round" stroke-width="2" d="M12 12v.01m2.828-2.838a4 4 0 0 1 0 5.656m2.829-8.485a8 8 0 0 1 0 11.314m-8.489-2.829a4 4 0 0 1 0-5.656m-2.831 8.485a8 8 0 0 1 0-11.314"/></g><g transform="translate(17 22) scale(19.208333333333332 19.208333333333332) translate(0 0)"><path fill="none" stroke="#111111" stroke-linecap="round" stroke-linejoin="round" stroke-width="2" d="M12 12v.01m2.828-2.838a4 4 0 0 1 0 5.656m2.829-8.485a8 8 0 0 1 0 11.314m-8.489-2.829a4 4 0 0 1 0-5.656m-2.831 8.485a8 8 0 0 1 0-11.314"/></g><g transform="translate(19 19) scale(19.208333333333332 19.208333333333332) translate(0 0)"><path fill="none" stroke="#111111" stroke-linecap="round" stroke-linejoin="round" stroke-width="2" d="M12 12v.01m2.828-2.838a4 4 0 0 1 0 5.656m2.829-8.485a8 8 0 0 1 0 11.314m-8.489-2.829a4 4 0 0 1 0-5.656m-2.831 8.485a8 8 0 0 1 0-11.314"/></g><g transform="translate(21 17) scale(19.208333333333332 19.208333333333332) translate(0 0)"><path fill="none" stroke="#111111" stroke-linecap="round" stroke-linejoin="round" stroke-width="2" d="M12 12v.01m2.828-2.838a4 4 0 0 1 0 5.656m2.829-8.485a8 8 0 0 1 0 11.314m-8.489-2.829a4 4 0 0 1 0-5.656m-2.831 8.485a8 8 0 0 1 0-11.314"/></g><g transform="translate(24 16) scale(19.208333333333332 19.208333333333332) translate(0 0)"><path fill="none" stroke="#111111" stroke-linecap="round" stroke-linejoin="round" stroke-width="2" d="M12 12v.01m2.828-2.838a4 4 0 0 1 0 5.656m2.829-8.485a8 8 0 0 1 0 11.314m-8.489-2.829a4 4 0 0 1 0-5.656m-2.831 8.485a8 8 0 0 1 0-11.314"/></g><g transform="translate(27 16) scale(19.208333333333332 19.208333333333332) translate(0 0)"><path fill="none" stroke="#111111" stroke-linecap="round" stroke-linejoin="round" stroke-width="2" d="M12 12v.01m2.828-2.838a4 4 0 0 1 0 5.656m2.829-8.485a8 8 0 0 1 0 11.314m-8.489-2.829a4 4 0 0 1 0-5.656m-2.831 8.485a8 8 0 0 1 0-11.314"/></g><g transform="translate(30 17) scale(19.208333333333332 19.208333333333332) translate(0 0)"><path fill="none" stroke="#111111" stroke-linecap="round" stroke-linejoin="round" stroke-width="2" d="M12 12v.01m2.828-2.838a4 4 0 0 1 0 5.656m2.829-8.485a8 8 0 0 1 0 11.314m-8.489-2.829a4 4 0 0 1 0-5.656m-2.831 8.485a8 8 0 0 1 0-11.314"/></g><g transform="translate(32 18) scale(19.208333333333332 19.208333333333332) translate(0 0)"><path fill="none" stroke="#111111" stroke-linecap="round" stroke-linejoin="round" stroke-width="2" d="M12 12v.01m2.828-2.838a4 4 0 0 1 0 5.656m2.829-8.485a8 8 0 0 1 0 11.314m-8.489-2.829a4 4 0 0 1 0-5.656m-2.831 8.485a8 8 0 0 1 0-11.314"/></g><g transform="translate(34 20) scale(19.208333333333332 19.208333333333332) translate(0 0)"><path fill="none" stroke="#111111" stroke-linecap="round" stroke-linejoin="round" stroke-width="2" d="M12 12v.01m2.828-2.838a4 4 0 0 1 0 5.656m2.829-8.485a8 8 0 0 1 0 11.314m-8.489-2.829a4 4 0 0 1 0-5.656m-2.831 8.485a8 8 0 0 1 0-11.314"/></g><g transform="translate(36 23) scale(19.208333333333332 19.208333333333332) translate(0 0)"><path fill="none" stroke="#111111" stroke-linecap="round" stroke-linejoin="round" stroke-width="2" d="M12 12v.01m2.828-2.838a4 4 0 0 1 0 5.656m2.829-8.485a8 8 0 0 1 0 11.314m-8.489-2.829a4 4 0 0 1 0-5.656m-2.831 8.485a8 8 0 0 1 0-11.314"/></g><g transform="translate(33 26) scale(19.208333333333332 19.208333333333332) translate(0 0)"><path fill="none" stroke="#111111" stroke-linecap="round" stroke-linejoin="round" stroke-width="2" d="M12 12v.01m2.828-2.838a4 4 0 0 1 0 5.656m2.829-8.485a8 8 0 0 1 0 11.314m-8.489-2.829a4 4 0 0 1 0-5.656m-2.831 8.485a8 8 0 0 1 0-11.314"/></g><g transform="translate(32 29) scale(19.208333333333332 19.208333333333332) translate(0 0)"><path fill="none" stroke="#111111" stroke-linecap="round" stroke-linejoin="round" stroke-width="2" d="M12 12v.01m2.828-2.838a4 4 0 0 1 0 5.656m2.829-8.485a8 8 0 0 1 0 11.314m-8.489-2.829a4 4 0 0 1 0-5.656m-2.831 8.485a8 8 0 0 1 0-11.314"/></g><g transform="translate(31 31) scale(19.208333333333332 19.208333333333332) translate(0 0)"><path fill="none" stroke="#111111" stroke-linecap="round" stroke-linejoin="round" stroke-width="2" d="M12 12v.01m2.828-2.838a4 4 0 0 1 0 5.656m2.829-8.485a8 8 0 0 1 0 11.314m-8.489-2.829a4 4 0 0 1 0-5.656m-2.831 8.485a8 8 0 0 1 0-11.314"/></g><g transform="translate(28 33) scale(19.208333333333332 19.208333333333332) translate(0 0)"><path fill="none" stroke="#111111" stroke-linecap="round" stroke-linejoin="round" stroke-width="2" d="M12 12v.01m2.828-2.838a4 4 0 0 1 0 5.656m2.829-8.485a8 8 0 0 1 0 11.314m-8.489-2.829a4 4 0 0 1 0-5.656m-2.831 8.485a8 8 0 0 1 0-11.314"/></g><g transform="translate(25 33) scale(19.208333333333332 19.208333333333332) translate(0 0)"><path fill="none" stroke="#111111" stroke-linecap="round" stroke-linejoin="round" stroke-width="2" d="M12 12v.01m2.828-2.838a4 4 0 0 1 0 5.656m2.829-8.485a8 8 0 0 1 0 11.314m-8.489-2.829a4 4 0 0 1 0-5.656m-2.831 8.485a8 8 0 0 1 0-11.314"/></g><g transform="translate(23 32) scale(19.208333333333332 19.208333333333332) translate(0 0)"><path fill="none" stroke="#111111" stroke-linecap="round" stroke-linejoin="round" stroke-width="2" d="M12 12v.01m2.828-2.838a4 4 0 0 1 0 5.656m2.829-8.485a8 8 0 0 1 0 11.314m-8.489-2.829a4 4 0 0 1 0-5.656m-2.831 8.485a8 8 0 0 1 0-11.314"/></g><g transform="translate(20 30) scale(19.208333333333332 19.208333333333332) translate(0 0)"><path fill="none" stroke="#111111" stroke-linecap="round" stroke-linejoin="round" stroke-width="2" d="M12 12v.01m2.828-2.838a4 4 0 0 1 0 5.656m2.829-8.485a8 8 0 0 1 0 11.314m-8.489-2.829a4 4 0 0 1 0-5.656m-2.831 8.485a8 8 0 0 1 0-11.314"/></g><g transform="translate(19 27) scale(19.208333333333332 19.208333333333332) translate(0 0)"><path fill="none" stroke="#111111" stroke-linecap="round" stroke-linejoin="round" stroke-width="2" d="M12 12v.01m2.828-2.838a4 4 0 0 1 0 5.656m2.829-8.485a8 8 0 0 1 0 11.314m-8.489-2.829a4 4 0 0 1 0-5.656m-2.831 8.485a8 8 0 0 1 0-11.314"/></g><g transform="translate(19 25) scale(19.208333333333332 19.208333333333332) translate(0 0)"><path fill="none" stroke="#111111" stroke-linecap="round" stroke-linejoin="round" stroke-width="2" d="M12 12v.01m2.828-2.838a4 4 0 0 1 0 5.656m2.829-8.485a8 8 0 0 1 0 11.314m-8.489-2.829a4 4 0 0 1 0-5.656m-2.831 8.485a8 8 0 0 1 0-11.314"/></g><g transform="translate(20 22) scale(19.208333333333332 19.208333333333332) translate(0 0)"><path fill="none" stroke="#111111" stroke-linecap="round" stroke-linejoin="round" stroke-width="2" d="M12 12v.01m2.828-2.838a4 4 0 0 1 0 5.656m2.829-8.485a8 8 0 0 1 0 11.314m-8.489-2.829a4 4 0 0 1 0-5.656m-2.831 8.485a8 8 0 0 1 0-11.314"/></g><g transform="translate(22 20) scale(19.208333333333332 19.208333333333332) translate(0 0)"><path fill="none" stroke="#111111" stroke-linecap="round" stroke-linejoin="round" stroke-width="2" d="M12 12v.01m2.828-2.838a4 4 0 0 1 0 5.656m2.829-8.485a8 8 0 0 1 0 11.314m-8.489-2.829a4 4 0 0 1 0-5.656m-2.831 8.485a8 8 0 0 1 0-11.314"/></g><g transform="translate(25 19) scale(19.208333333333332 19.208333333333332) translate(0 0)"><path fill="none" stroke="#111111" stroke-linecap="round" stroke-linejoin="round" stroke-width="2" d="M12 12v.01m2.828-2.838a4 4 0 0 1 0 5.656m2.829-8.485a8 8 0 0 1 0 11.314m-8.489-2.829a4 4 0 0 1 0-5.656m-2.831 8.485a8 8 0 0 1 0-11.314"/></g><g transform="translate(28 19) scale(19.208333333333332 19.208333333333332) translate(0 0)"><path fill="none" stroke="#111111" stroke-linecap="round" stroke-linejoin="round" stroke-width="2" d="M12 12v.01m2.828-2.838a4 4 0 0 1 0 5.656m2.829-8.485a8 8 0 0 1 0 11.314m-8.489-2.829a4 4 0 0 1 0-5.656m-2.831 8.485a8 8 0 0 1 0-11.314"/></g><g transform="translate(31 21) scale(19.208333333333332 19.208333333333332) translate(0 0)"><path fill="none" stroke="#111111" stroke-linecap="round" stroke-linejoin="round" stroke-width="2" d="M12 12v.01m2.828-2.838a4 4 0 0 1 0 5.656m2.829-8.485a8 8 0 0 1 0 11.314m-8.489-2.829a4 4 0 0 1 0-5.656m-2.831 8.485a8 8 0 0 1 0-11.314"/></g><g transform="translate(32 23) scale(19.208333333333332 19.208333333333332) translate(0 0)"><path fill="none" stroke="#111111" stroke-linecap="round" stroke-linejoin="round" stroke-width="2" d="M12 12v.01m2.828-2.838a4 4 0 0 1 0 5.656m2.829-8.485a8 8 0 0 1 0 11.314m-8.489-2.829a4 4 0 0 1 0-5.656m-2.831 8.485a8 8 0 0 1 0-11.314"/></g><g transform="translate(29 26) scale(19.208333333333332 19.208333333333332) translate(0 0)"><path fill="none" stroke="#111111" stroke-linecap="round" stroke-linejoin="round" stroke-width="2" d="M12 12v.01m2.828-2.838a4 4 0 0 1 0 5.656m2.829-8.485a8 8 0 0 1 0 11.314m-8.489-2.829a4 4 0 0 1 0-5.656m-2.831 8.485a8 8 0 0 1 0-11.314"/></g><g transform="translate(29 27) scale(19.208333333333332 19.208333333333332) translate(0 0)"><path fill="none" stroke="#111111" stroke-linecap="round" stroke-linejoin="round" stroke-width="2" d="M12 12v.01m2.828-2.838a4 4 0 0 1 0 5.656m2.829-8.485a8 8 0 0 1 0 11.314m-8.489-2.829a4 4 0 0 1 0-5.656m-2.831 8.485a8 8 0 0 1 0-11.314"/></g><g transform="translate(28 29) scale(19.208333333333332 19.208333333333332) translate(0 0)"><path fill="none" stroke="#111111" stroke-linecap="round" stroke-linejoin="round" stroke-width="2" d="M12 12v.01m2.828-2.838a4 4 0 0 1 0 5.656m2.829-8.485a8 8 0 0 1 0 11.314m-8.489-2.829a4 4 0 0 1 0-5.656m-2.831 8.485a8 8 0 0 1 0-11.314"/></g><g transform="translate(26 29) scale(19.208333333333332 19.208333333333332) translate(0 0)"><path fill="none" stroke="#111111" stroke-linecap="round" stroke-linejoin="round" stroke-width="2" d="M12 12v.01m2.828-2.838a4 4 0 0 1 0 5.656m2.829-8.485a8 8 0 0 1 0 11.314m-8.489-2.829a4 4 0 0 1 0-5.656m-2.831 8.485a8 8 0 0 1 0-11.314"/></g><g transform="translate(25 29) scale(19.208333333333332 19.208333333333332) translate(0 0)"><path fill="none" stroke="#111111" stroke-linecap="round" stroke-linejoin="round" stroke-width="2" d="M12 12v.01m2.828-2.838a4 4 0 0 1 0 5.656m2.829-8.485a8 8 0 0 1 0 11.314m-8.489-2.829a4 4 0 0 1 0-5.656m-2.831 8.485a8 8 0 0 1 0-11.314"/></g><g transform="translate(23 27) scale(19.208333333333332 19.208333333333332) translate(0 0)"><path fill="none" stroke="#111111" stroke-linecap="round" stroke-linejoin="round" stroke-width="2" d="M12 12v.01m2.828-2.838a4 4 0 0 1 0 5.656m2.829-8.485a8 8 0 0 1 0 11.314m-8.489-2.829a4 4 0 0 1 0-5.656m-2.831 8.485a8 8 0 0 1 0-11.314"/></g><g transform="translate(23 26) scale(19.208333333333332 19.208333333333332) translate(0 0)"><path fill="none" stroke="#111111" stroke-linecap="round" stroke-linejoin="round" stroke-width="2" d="M12 12v.01m2.828-2.838a4 4 0 0 1 0 5.656m2.829-8.485a8 8 0 0 1 0 11.314m-8.489-2.829a4 4 0 0 1 0-5.656m-2.831 8.485a8 8 0 0 1 0-11.314"/></g><g transform="translate(23 24) scale(19.208333333333332 19.208333333333332) translate(0 0)"><path fill="none" stroke="#111111" stroke-linecap="round" stroke-linejoin="round" stroke-width="2" d="M12 12v.01m2.828-2.838a4 4 0 0 1 0 5.656m2.829-8.485a8 8 0 0 1 0 11.314m-8.489-2.829a4 4 0 0 1 0-5.656m-2.831 8.485a8 8 0 0 1 0-11.314"/></g><g transform="translate(24 23) scale(19.208333333333332 19.208333333333332) translate(0 0)"><path fill="none" stroke="#111111" stroke-linecap="round" stroke-linejoin="round" stroke-width="2" d="M12 12v.01m2.828-2.838a4 4 0 0 1 0 5.656m2.829-8.485a8 8 0 0 1 0 11.314m-8.489-2.829a4 4 0 0 1 0-5.656m-2.831 8.485a8 8 0 0 1 0-11.314"/></g><g transform="translate(26 23) scale(19.208333333333332 19.208333333333332) translate(0 0)"><path fill="none" stroke="#111111" stroke-linecap="round" stroke-linejoin="round" stroke-width="2" d="M12 12v.01m2.828-2.838a4 4 0 0 1 0 5.656m2.829-8.485a8 8 0 0 1 0 11.314m-8.489-2.829a4 4 0 0 1 0-5.656m-2.831 8.485a8 8 0 0 1 0-11.314"/></g><g transform="translate(28 23) scale(19.208333333333332 19.208333333333332) translate(0 0)"><path fill="none" stroke="#111111" stroke-linecap="round" stroke-linejoin="round" stroke-width="2" d="M12 12v.01m2.828-2.838a4 4 0 0 1 0 5.656m2.829-8.485a8 8 0 0 1 0 11.314m-8.489-2.829a4 4 0 0 1 0-5.656m-2.831 8.485a8 8 0 0 1 0-11.314"/></g><g transform="translate(29 24) scale(19.208333333333332 19.208333333333332) translate(0 0)"><path fill="none" stroke="#111111" stroke-linecap="round" stroke-linejoin="round" stroke-width="2" d="M12 12v.01m2.828-2.838a4 4 0 0 1 0 5.656m2.829-8.485a8 8 0 0 1 0 11.314m-8.489-2.829a4 4 0 0 1 0-5.656m-2.831 8.485a8 8 0 0 1 0-11.314"/></g>
      <g transform="translate(26 26) scale(19.208333333333332 19.208333333333332) translate(0 0)"><path fill="none" stroke="#FFFFFF" stroke-linecap="round" stroke-linejoin="round" stroke-width="2" d="M12 12v.01m2.828-2.838a4 4 0 0 1 0 5.656m2.829-8.485a8 8 0 0 1 0 11.314m-8.489-2.829a4 4 0 0 1 0-5.656m-2.831 8.485a8 8 0 0 1 0-11.314"/></g>
    </g>
  </g>
</svg>